<svg id="Camada_1" data-name="Camada 1" xmlns="http://www.w3.org/2000/svg" viewBox="0 0 1080 1080">
  <defs>
    <style>
      .cls-1 {
        fill: #e6e6e6;
      }

      .cls-2 {
        fill: #a83e3e;
      }

      .cls-3 {
        fill: #fff;
      }

      .cls-4 {
        fill: #8c6239;
      }
    </style>
  </defs>
  <rect class="cls-1" x="57" y="480" width="966" height="174"/>
  <g>
    <path class="cls-2" d="M199.80566,461.26807h-55.998v31.65136h49.18066v33.84229H143.80762v34.08594h59.89355v35.05859H93.65234V426.45215H204.918Z"/>
    <path class="cls-2" d="M302.5459,563.03906H262.37305L256.043,595.90625h-52.3457l49.4248-169.4541h59.89355l49.18067,169.4541H309.11914ZM295.48535,527.979l-13.14746-66.46728L269.43457,527.979Z"/>
    <path class="cls-2" d="M491.47656,444.7124l-22.15625,26.05127c-11.19922-9.0083-22.88574-13.63428-36.27636-13.63428-12.17383,0-18.26075,4.626-18.26075,12.17334,0,8.76465,6.33008,11.44288,30.4336,19.23389,34.8164,11.19971,50.39843,26.29492,50.39843,56.729,0,32.625-26.78125,55.51075-71.33593,55.51075-32.38184,0-54.29395-12.17383-68.17188-25.56446l24.59082-27.02539c12.17285,10.46973,25.80762,16.55567,41.63281,16.55567,14.6084,0,21.18165-6.57324,21.18165-15.33789,0-9.98242-5.35645-14.36475-27.51172-21.18213-40.90332-12.90381-52.833-30.18994-52.833-54.78028,0-32.13818,28.24219-51.85888,65.73633-51.85888C456.17285,421.583,476.1377,429.86084,491.47656,444.7124Z"/>
    <path class="cls-2" d="M594.95215,533.335v62.57129h-50.1543V533.57861L490.74707,426.45215h54.78125l25.07715,69.14551,25.32031-69.14551H649.002Z"/>
  </g>
  <rect class="cls-3" x="630" y="601" width="393" height="4"/>
  <g>
    <path class="cls-4" d="M778.40332,504.74121c0,53.77246-23.65039,85.0752-64.208,85.0752-38.81347,0-64.0664-30.74512-64.0664-84.69336,0-54.04981,25.91211-85.80371,64.0664-85.80371C753.39355,419.31934,778.40332,449.6123,778.40332,504.74121Zm-124.65625.38184c0,52.10254,23.85938,81.38965,60.44824,81.38965,38.53907,0,60.58985-29.42579,60.58985-81.77149,0-53.2832-23.40723-82.11719-60.58985-82.11719C678.05957,422.624,653.74707,452.5,653.74707,505.12305Z"/>
    <path class="cls-4" d="M836.06738,566.51367c0,23.5459-5.14941,33.59863-30.748,44.51856l-1.07813-2.67774c23.26856-10.15527,28.3125-19.68457,28.3125-42.0498V421.75488h3.51367Z"/>
    <path class="cls-4" d="M972.71777,435.73438l-2.22558,2.57617C959.43164,428.22363,947.918,422.624,929.55566,422.624c-24.62695,0-40.59179,14.81446-40.59179,34.4336,0,20.834,10.64453,29.25,42.46875,39.23242,32.0332,9.98242,46.67578,20.38086,46.67578,47.37207,0,27.30273-20.31055,46.1543-49.94531,46.1543-22.085,0-36.17286-7.75684-48.72852-19.51172l2.22559-2.46875c11.92968,11.2334,24.834,18.67676,46.39746,18.67676,27.792,0,46.54-17.14747,46.54-42.7461,0-25.18164-13.39161-34.60644-44.34864-44.38183-33.56152-10.6084-44.79785-20.17188-44.79785-42.32715,0-21.35742,17.46094-37.73828,44.10449-37.73828C949.86523,419.31934,961.65723,425.99609,972.71777,435.73438Z"/>
  </g>
</svg>
