<svg id="Camada_1" data-name="Camada 1" xmlns="http://www.w3.org/2000/svg" viewBox="0 0 1080 1080">
  <defs>
    <style>
      .cls-1, .cls-3 {
        fill: #fff;
      }

      .cls-2 {
        fill: #e6e6e6;
      }

      .cls-3 {
        stroke: #fff;
        stroke-miterlimit: 10;
        stroke-width: 12.37122px;
      }

      .cls-4 {
        fill: #a83e3e;
      }

      .cls-5 {
        fill: #8c6239;
      }
    </style>
  </defs>
  <g>
    <rect class="cls-1" x="0.5" y="0.5" width="1079" height="1079"/>
    <path d="M1079,1V1079H1V1H1079m1-1H0V1080H1080V0Z"/>
  </g>
  <rect class="cls-2" x="57" y="821" width="966" height="8"/>
  <g>
    <path class="cls-3" d="M480.73682,641.02539c0,101.25-44.53223,160.19141-120.89844,160.19141-73.0835,0-120.63233-57.8916-120.63233-159.47071,0-101.77343,48.791-161.5625,120.63233-161.5625C433.64648,480.18359,480.73682,537.22217,480.73682,641.02539Zm-234.71875.7207c0,98.1045,44.92675,153.25,113.82031,153.25,72.56592,0,114.08642-55.40722,114.08642-153.9707,0-100.32812-44.07421-154.6206-114.08642-154.6206C291.79736,486.40479,246.01807,542.65918,246.01807,641.74609Z"/>
    <path class="cls-3" d="M589.31348,757.33984c0,44.335-9.69629,63.26368-57.89551,83.8252l-2.03125-5.043c43.8125-19.12109,53.31152-37.06445,53.31152-79.17676V484.76807h6.61524Z"/>
    <path class="cls-3" d="M846.61621,511.09131l-4.19043,4.8501c-20.82617-18.99268-42.50586-29.53662-77.081-29.53662-46.3711,0-76.43067,27.8955-76.43067,64.83642,0,39.22754,20.043,55.07617,79.96485,73.87207,60.3164,18.7959,87.88671,38.376,87.88671,89.19824,0,51.40821-38.24218,86.90528-94.043,86.90528-41.585,0-68.11036-14.60547-91.752-36.73926l4.19043-4.64844c22.46387,21.15235,46.76075,35.167,87.36426,35.167,52.33008,0,87.62988-32.28808,87.62988-80.48828,0-47.416-25.21386-65.16211-83.5039-83.56836-63.19532-19.97363-84.35254-37.98047-84.35254-79.69824,0-40.21387,32.8789-71.05762,83.0459-71.05762C803.58691,480.18359,825.78906,492.75391,846.61621,511.09131Z"/>
  </g>
  <rect class="cls-2" x="57" y="252" width="966" height="174"/>
  <g>
    <path class="cls-4" d="M278.63867,241.50439H190.54932v49.78907h77.36523v53.23681H190.54932v53.61914H284.7666v55.15137H111.65234V186.73584h175.0293Z"/>
    <path class="cls-4" d="M440.26074,401.59619H377.06641l-9.958,51.70459H284.76465l77.748-266.56494h94.21679l77.36524,266.56494H450.60156Zm-11.10693-55.15137L408.47217,241.88721,388.17334,346.44482Z"/>
    <path class="cls-4" d="M737.4668,215.46045l-34.85254,40.98047c-17.61817-14.1709-36.002-21.44776-57.06641-21.44776-19.14941,0-28.72558,7.27686-28.72558,19.14991,0,13.78759,9.959,18.001,47.875,30.25683,54.76855,17.61768,79.28027,41.36328,79.28027,89.2378,0,51.32128-42.12988,87.32324-112.21777,87.32324-50.93848,0-85.40821-19.1499-107.23877-40.21485l38.68212-42.51269c19.1504,16.46924,40.59766,26.04394,65.49219,26.04394,22.98047,0,33.32129-10.34082,33.32129-24.1289,0-15.70264-8.42676-22.59668-43.27832-33.32032-64.34375-20.29882-83.11035-47.49169-83.11035-86.17431,0-50.55518,44.42676-81.57764,103.40918-81.57764C681.93262,179.07617,713.33789,192.09766,737.4668,215.46045Z"/>
    <path class="cls-4" d="M900.24512,354.87109v98.42969H821.34863V355.25391L736.32324,186.73584h86.17383l39.44922,108.771,39.83105-108.771h83.49317Z"/>
  </g>
  <g>
    <path class="cls-5" d="M480.73682,641.02539c0,101.25-44.53223,160.19141-120.89844,160.19141-73.0835,0-120.63233-57.8916-120.63233-159.47071,0-101.77343,48.791-161.5625,120.63233-161.5625C433.64648,480.18359,480.73682,537.22217,480.73682,641.02539Zm-234.71875.7207c0,98.1045,44.92675,153.25,113.82031,153.25,72.56592,0,114.08642-55.40722,114.08642-153.9707,0-100.32812-44.07421-154.6206-114.08642-154.6206C291.79736,486.40479,246.01807,542.65918,246.01807,641.74609Z"/>
    <path class="cls-5" d="M589.31348,757.33984c0,44.335-9.69629,63.26368-57.89551,83.8252l-2.03125-5.043c43.8125-19.12109,53.31152-37.06445,53.31152-79.17676V484.76807h6.61524Z"/>
    <path class="cls-5" d="M846.61621,511.09131l-4.19043,4.8501c-20.82617-18.99268-42.50586-29.53662-77.081-29.53662-46.3711,0-76.43067,27.8955-76.43067,64.83642,0,39.22754,20.043,55.07617,79.96485,73.87207,60.3164,18.7959,87.88671,38.376,87.88671,89.19824,0,51.40821-38.24218,86.90528-94.043,86.90528-41.585,0-68.11036-14.60547-91.752-36.73926l4.19043-4.64844c22.46387,21.15235,46.76075,35.167,87.36426,35.167,52.33008,0,87.62988-32.28808,87.62988-80.48828,0-47.416-25.21386-65.16211-83.5039-83.56836-63.19532-19.97363-84.35254-37.98047-84.35254-79.69824,0-40.21387,32.8789-71.05762,83.0459-71.05762C803.58691,480.18359,825.78906,492.75391,846.61621,511.09131Z"/>
  </g>
</svg>
